<svg width="15" height="15" viewBox="0 0 15 15" fill="none" xmlns="http://www.w3.org/2000/svg">
<path d="M13.3689 5.25234L9.59882 4.91007L8.10888 1.42181C7.99887 1.16553 7.74857 1.00012 7.46997 1.00012C7.19137 1.00012 6.94097 1.16553 6.83167 1.42181L5.34172 4.91007L1.57108 5.25234C1.29467 5.27785 1.06061 5.46508 0.974126 5.72903C0.888136 5.99348 0.96755 6.28354 1.1766 6.46688L4.02646 8.96579L3.18618 12.6667C3.12471 12.9388 3.23033 13.2202 3.45611 13.3834C3.57748 13.4716 3.72007 13.5156 3.86315 13.5156C3.98611 13.5156 4.10917 13.483 4.21907 13.4172L7.46998 11.4734L10.7203 13.4172C10.9587 13.5597 11.2586 13.5466 11.4839 13.3834C11.7096 13.2202 11.8153 12.9388 11.7538 12.6667L10.9135 8.96579L13.7634 6.46688C13.9723 6.28354 14.0518 5.99407 13.9658 5.72903C13.8798 5.46458 13.6453 5.27735 13.3689 5.25234Z" stroke="#EE5A30"/>
</svg>
