<svg width="15" height="15" viewBox="0 0 15 15" fill="none" xmlns="http://www.w3.org/2000/svg">
<path d="M11.1247 14.276L7.5999 12.2822L4.07508 14.276C3.96062 14.3411 3.83158 14.3701 3.70261 14.3598C3.57364 14.3496 3.44992 14.3004 3.34553 14.2179C3.24113 14.1355 3.16024 14.023 3.11205 13.8934C3.06386 13.7637 3.0503 13.6221 3.07292 13.4845L3.76407 9.28031L0.916563 6.29337C0.827722 6.19756 0.764699 6.07743 0.734259 5.94589C0.703818 5.81435 0.707109 5.67632 0.743777 5.54663C0.783836 5.41388 0.857523 5.29597 0.956476 5.20624C1.05543 5.11647 1.17569 5.05846 1.3036 5.03881L5.24311 4.41904L6.97788 0.588257C7.03448 0.461994 7.12284 0.35548 7.23282 0.280991C7.34285 0.206501 7.47007 0.166992 7.5999 0.166992C7.72974 0.166992 7.85696 0.206501 7.96694 0.280991C8.07697 0.35548 8.16533 0.461994 8.22193 0.588257L9.97743 4.41155L13.9169 5.03137C14.0449 5.05102 14.1651 5.10898 14.2641 5.19875C14.363 5.28852 14.4367 5.40644 14.4767 5.53914C14.5134 5.66883 14.5167 5.80685 14.4863 5.93845C14.4558 6.06999 14.3928 6.19013 14.304 6.28588L11.4565 9.27287L12.1476 13.477C12.1723 13.617 12.1594 13.7617 12.1104 13.8941C12.0614 14.0264 11.9784 14.1408 11.8712 14.2238C11.746 14.3186 11.5953 14.3658 11.4427 14.3582C11.3321 14.3587 11.2231 14.3305 11.1247 14.276Z" fill="#FC6011"/>
</svg>
